<svg width="61" height="75" viewBox="0 0 61 75" fill="none" xmlns="http://www.w3.org/2000/svg">
<path d="M20.88 35L11.736 22.58L14.652 20.78L24.984 35H20.88ZM3.924 35V9.8H7.452V35H3.924ZM6.372 23.912V20.744H14.544V23.912H6.372ZM14.976 22.796L11.664 22.292L20.7 9.8H24.552L14.976 22.796Z" fill="#006BB9"/>
<path d="M45.156 35.288C43.236 35.288 41.448 34.964 39.792 34.316C38.16 33.668 36.744 32.768 35.544 31.616C34.344 30.44 33.408 29.072 32.736 27.512C32.064 25.952 31.728 24.248 31.728 22.4C31.728 20.552 32.064 18.848 32.736 17.288C33.408 15.728 34.344 14.372 35.544 13.22C36.744 12.044 38.16 11.132 39.792 10.484C41.424 9.836 43.212 9.512 45.156 9.512C47.076 9.512 48.84 9.836 50.448 10.484C52.08 11.108 53.496 12.008 54.696 13.184C55.92 14.336 56.856 15.692 57.504 17.252C58.176 18.812 58.512 20.528 58.512 22.4C58.512 24.272 58.176 25.988 57.504 27.548C56.856 29.108 55.92 30.476 54.696 31.652C53.496 32.804 52.08 33.704 50.448 34.352C48.84 34.976 47.076 35.288 45.156 35.288ZM45.156 32.084C46.548 32.084 47.832 31.844 49.008 31.364C50.208 30.884 51.24 30.212 52.104 29.348C52.992 28.46 53.676 27.428 54.156 26.252C54.66 25.076 54.912 23.792 54.912 22.4C54.912 21.008 54.66 19.724 54.156 18.548C53.676 17.372 52.992 16.352 52.104 15.488C51.24 14.6 50.208 13.916 49.008 13.436C47.832 12.956 46.548 12.716 45.156 12.716C43.74 12.716 42.432 12.956 41.232 13.436C40.056 13.916 39.024 14.6 38.136 15.488C37.248 16.352 36.552 17.372 36.048 18.548C35.568 19.724 35.328 21.008 35.328 22.4C35.328 23.792 35.568 25.076 36.048 26.252C36.552 27.428 37.248 28.46 38.136 29.348C39.024 30.212 40.056 30.884 41.232 31.364C42.432 31.844 43.74 32.084 45.156 32.084Z" fill="#006BB9"/>
<path d="M7.78 49V23.8H17.608C19.816 23.8 21.7 24.148 23.26 24.844C24.82 25.54 26.02 26.548 26.86 27.868C27.7 29.188 28.12 30.76 28.12 32.584C28.12 34.408 27.7 35.98 26.86 37.3C26.02 38.596 24.82 39.604 23.26 40.324C21.7 41.02 19.816 41.368 17.608 41.368H9.76L11.38 39.676V49H7.78ZM11.38 40.036L9.76 38.236H17.5C19.804 38.236 21.544 37.744 22.72 36.76C23.92 35.776 24.52 34.384 24.52 32.584C24.52 30.784 23.92 29.392 22.72 28.408C21.544 27.424 19.804 26.932 17.5 26.932H9.76L11.38 25.132V40.036ZM33.4089 49V23.8H43.2369C45.4449 23.8 47.3289 24.148 48.8889 24.844C50.4489 25.54 51.6489 26.548 52.4889 27.868C53.3289 29.188 53.7489 30.76 53.7489 32.584C53.7489 34.408 53.3289 35.98 52.4889 37.3C51.6489 38.596 50.4489 39.604 48.8889 40.324C47.3289 41.02 45.4449 41.368 43.2369 41.368H35.3889L37.0089 39.676V49H33.4089ZM37.0089 40.036L35.3889 38.236H43.1289C45.4329 38.236 47.1729 37.744 48.3489 36.76C49.5489 35.776 50.1489 34.384 50.1489 32.584C50.1489 30.784 49.5489 29.392 48.3489 28.408C47.1729 27.424 45.4329 26.932 43.1289 26.932H35.3889L37.0089 25.132V40.036Z" fill="#6BB6EC"/>
<path d="M13.904 68V58.192H10.064V56.8H19.328V58.192H15.488V68H13.904ZM22.5266 61.632H28.2866V62.992H22.5266V61.632ZM22.6706 66.608H29.1986V68H21.0706V56.8H28.9746V58.192H22.6706V66.608ZM35.0534 68.128C34.2 68.128 33.384 68 32.6054 67.744C31.8267 67.4773 31.2134 67.136 30.7654 66.72L31.3574 65.472C31.784 65.8453 32.328 66.1547 32.9894 66.4C33.6507 66.6453 34.3387 66.768 35.0534 66.768C35.704 66.768 36.232 66.6933 36.6374 66.544C37.0427 66.3947 37.3414 66.192 37.5334 65.936C37.7254 65.6693 37.8214 65.3707 37.8214 65.04C37.8214 64.656 37.6934 64.3467 37.4374 64.112C37.192 63.8773 36.8667 63.6907 36.4614 63.552C36.0667 63.4027 35.6294 63.2747 35.1494 63.168C34.6694 63.0613 34.184 62.9387 33.6934 62.8C33.2134 62.6507 32.7707 62.464 32.3654 62.24C31.9707 62.016 31.6507 61.7173 31.4054 61.344C31.16 60.96 31.0374 60.4693 31.0374 59.872C31.0374 59.296 31.1867 58.768 31.4854 58.288C31.7947 57.7973 32.264 57.408 32.8934 57.12C33.5334 56.8213 34.344 56.672 35.3254 56.672C35.976 56.672 36.6214 56.7573 37.2614 56.928C37.9014 57.0987 38.456 57.344 38.9254 57.664L38.3974 58.944C37.9174 58.624 37.4107 58.3947 36.8774 58.256C36.344 58.1067 35.8267 58.032 35.3254 58.032C34.696 58.032 34.1787 58.112 33.7734 58.272C33.368 58.432 33.0694 58.6453 32.8774 58.912C32.696 59.1787 32.6054 59.4773 32.6054 59.808C32.6054 60.2027 32.728 60.5173 32.9734 60.752C33.2294 60.9867 33.5547 61.1733 33.9494 61.312C34.3547 61.4507 34.7974 61.5787 35.2774 61.696C35.7574 61.8027 36.2374 61.9253 36.7174 62.064C37.208 62.2027 37.6507 62.384 38.0454 62.608C38.4507 62.832 38.776 63.1307 39.0214 63.504C39.2667 63.8773 39.3894 64.3573 39.3894 64.944C39.3894 65.5093 39.2347 66.0373 38.9254 66.528C38.616 67.008 38.136 67.3973 37.4854 67.696C36.8454 67.984 36.0347 68.128 35.0534 68.128ZM43.7946 68V58.192H39.9546V56.8H49.2186V58.192H45.3786V68H43.7946Z" fill="#00518C"/>
</svg>
